PathFileType	4	(X/Y/Z)	D:\TRACE\spotREDO_2-26-24\spot_justArm_Motion_2_1-platform.trc
DataRate	CameraRate	NumFrames	NumMarkers	Units	OrigDataRate	OrigDataStartFrame	OrigNumFrames
100.00	100.00	      23	5	mm	100.00	6126	      7000
Frame#	Time	Left_Front			Right_Front			Left_Aft			Right_Aft			Post			
		X1	Y1	Z1	X2	Y2	Z2	X3	Y3	Z3	X4	Y4	Z4	X5	Y5	Z5	

6126	61.250	-747.22797	-43.13168	-584.37152	667.79675	-29.59440	-500.07141	-818.45654	44.56746	631.63159	750.72510	50.57216	635.94434	-37.55288	556.15826	-1030.91016	
6127	61.260	-747.33789	-43.78235	-584.51044	667.78833	-30.15421	-500.17596	-818.60657	45.20810	631.44885	750.37018	51.57969	635.71814	-37.22318	554.61633	-1032.04553	
6128	61.270	-747.10358	-44.81654	-584.68616	667.64288	-30.63137	-500.61191	-818.68726	46.24835	631.13739	750.65247	52.53013	635.48291	-37.27090	552.91815	-1032.90967	
6129	61.280	-747.02405	-45.70144	-584.67627	667.85876	-31.74575	-500.60614	-818.42542	47.19199	630.78046	750.76233	53.33326	635.16534	-37.45095	551.55121	-1034.06799	
6130	61.290	-747.27362	-46.48999	-584.86969	667.77423	-32.43514	-500.78369	-818.60510	47.84601	630.39661	750.50647	53.91521	634.50739	-37.12663	550.06769	-1035.06921	
6131	61.300	-747.18005	-47.38739	-584.96167	667.86951	-33.05531	-500.99512	-818.40564	49.00922	630.08771	750.91986	54.89432	634.43195	-37.44189	548.48407	-1036.03979	
6132	61.310	-746.88287	-48.18237	-585.07153	668.16193	-33.82972	-501.09003	-818.09668	49.66927	630.00989	751.10297	55.68045	634.30255	-37.02651	547.15515	-1037.02051	
6133	61.320	-746.70209	-48.79473	-585.33801	668.44781	-34.31385	-501.28595	-817.76514	50.37822	629.78503	751.40991	56.64467	634.01563	-36.22169	545.74603	-1037.47644	
6134	61.330	-746.20502	-49.76213	-585.45935	668.84717	-35.13149	-501.42245	-817.63147	51.49092	629.39575	751.97375	57.22471	633.79071	-35.78006	544.38416	-1038.26721	
6135	61.340	-745.77960	-50.45510	-585.58453	669.06152	-35.65236	-501.69168	-817.27167	52.04112	629.20856	752.12994	58.17314	633.46875	-35.44991	543.04974	-1039.44067	
6136	61.350	-745.58350	-50.90225	-585.69904	669.51709	-36.48962	-501.78412	-816.77338	52.77599	628.94379	752.36938	58.74545	633.30518	-35.21580	541.85553	-1039.98291	
6137	61.360	-745.08099	-51.87219	-585.84900	669.83997	-36.98452	-501.81586	-816.48840	53.11074	628.72565	752.69324	59.59261	632.91125	-34.95911	540.48730	-1041.11877	
6138	61.370	-744.87988	-52.43427	-585.81134	670.29773	-37.57786	-501.91406	-816.05768	53.90662	628.48083	753.15314	59.98320	632.50623	-34.75549	539.67426	-1042.02893	
6139	61.380	-744.49603	-53.04684	-586.00964	670.50122	-38.06647	-501.96979	-815.74017	54.69196	628.15033	753.25726	60.73143	632.58661	-34.55499	538.28876	-1042.79761	
6140	61.390	-744.11780	-53.56745	-586.25555	671.03369	-38.47877	-502.12338	-815.39880	55.15039	627.87140	754.10699	61.29526	632.39764	-33.84573	537.42590	-1043.44849	
6141	61.400	-743.68787	-54.19393	-586.37512	671.49860	-39.13401	-502.22977	-814.96820	55.52562	627.73383	754.78693	61.82339	632.12183	-33.45290	536.37476	-1043.95996	
6142	61.410	-743.22040	-54.77671	-586.29071	672.02820	-39.51276	-502.35611	-814.35400	56.16580	627.67651	754.79877	62.42411	632.10083	-33.15055	535.35101	-1044.78345	
6143	61.420	-742.92432	-55.13416	-586.35156	672.45825	-39.74411	-502.63776	-813.85632	56.63838	627.41364	755.20898	62.84587	631.88965	-32.46311	534.42706	-1045.52148	
6144	61.430	-742.43781	-55.61286	-586.44446	672.83179	-40.28429	-502.64426	-813.52850	57.66493	627.42230	755.73663	63.46688	631.61230	-31.88141	533.74567	-1045.87341	
6145	61.440	-741.76196	-56.37680	-586.59558	673.51740	-40.83936	-502.41415	-812.97675	57.81288	627.20526	756.25665	63.99673	631.49139	-31.67990	533.06763	-1046.34509	
6146	61.450	-741.28400	-56.76071	-586.70050	673.82330	-41.26228	-502.68164	-812.43732	58.03152	626.97650	756.89313	64.18974	631.34045	-30.93687	532.13800	-1046.84937	
6147	61.460	-740.80157	-56.95140	-586.75092	674.42181	-41.36738	-502.72461	-811.90991	58.32150	626.90100	757.26910	64.72258	631.38110	-30.67939	531.58374	-1047.06836	
6148	61.470	-740.32928	-57.07301	-586.73260	675.06970	-41.73230	-502.71655	-811.36554	58.73943	626.75238	757.76874	65.12818	631.13855	-30.22493	531.12329	-1047.16968	
